<?xml version="1.0" encoding="UTF-8"?>
<svg id="Layer_2" data-name="Layer 2" xmlns="http://www.w3.org/2000/svg" viewBox="0 0 314.26 344.22">
  <defs>
    <style>
      .cls-1 {
        fill: #fff;
      }
    </style>
  </defs>
  <g id="Layer_1-2" data-name="Layer 1">
    <g>
      <path class="cls-1" d="M310.89,80.72l-32.28-5.48c5.87,7.22,9.1,16.44,8.77,26.17l-1.91,55.13c-.74,21.51-6.71,42.57-17.22,60.93-21.09,36.77-56.37,68.62-104.98,94.82-3.78,2.04-8.36,1.89-12.03-.35-.86-.53-1.72-1.05-2.57-1.57-27.58-16.78-56.1-34.14-76.12-53.87-28.29-27.89-44.68-65.96-46.16-107.25l.67-68.21c.09-8.36,5.19-15.71,13.02-18.73,12.99-5,28.56-10.6,44.11-16.02,15.55-5.43,31.09-10.67,44.02-14.99,18.84-6.28,39.46-5.88,58.07,1.12,13.66,5.14,30.91,11.8,47.88,18.78l17.24-21.4c-19.54-8.19-40.05-16.12-55.83-22.06-12.82-4.83-26.37-7.25-39.94-7.25-12.09,0-24.18,1.93-35.77,5.79-26.12,8.71-62.81,21.24-89.27,31.43C12.6,44.62.86,61.53.67,80.78l-.67,68.51v.58c1.66,48.17,20.84,92.71,54.02,125.41,22.21,21.89,52.05,40.05,80.92,57.62,4.83,2.94,9.81,5.98,14.63,8.95l1.36.84c3.03,1.87,6.81,2.05,10,.46l1.43-.71c29.21-14.5,54.66-30.94,75.62-48.86,22.14-18.93,40.01-40.11,53.13-63,12.65-22.06,19.81-47.35,20.71-73.14l1.91-55.12c.26-7.46-.74-14.75-2.85-21.6Z"/>
      <g>
        <path class="cls-1" d="M303.12.63l-38.17,15.91c-5.72,2.38-6.71,10.06-1.79,13.82l32.86,25.1c4.92,3.76,12.07.78,12.86-5.36l5.31-41.01c.79-6.14-5.36-10.84-11.07-8.46Z"/>
        <path class="cls-1" d="M252.56,95.37l-27.59-3.54c-2.62-.34-3.85-3.41-2.19-5.46l46.73-57.72c1.17-1.45,3.29-1.67,4.74-.5l18.37,14.87c1.45,1.17,1.67,3.29.5,4.74l-37.5,46.39c-.74.91-1.89,1.37-3.05,1.22Z"/>
      </g>
      <g>
        <circle class="cls-1" cx="125.43" cy="256.83" r="15.35"/>
        <g>
          <path class="cls-1" d="M126.2,236.9h-.08c-13.84-.06-25.68-9.52-28.79-23.01l-.05-.24-21.66-106.64c-.71-2.29-2.72-3.99-5.11-4.3l-17.37-.86c-5.07-.25-8.98-4.57-8.72-9.64s4.57-8.97,9.64-8.72l18.1.91c10.09,1.01,18.63,8.26,21.27,18.05l.13.56,21.7,106.85c1.21,5.06,5.66,8.61,10.87,8.66l88.58-1.19s.08,0,.13,0c5.02,0,9.12,4.03,9.19,9.07.07,5.08-3.99,9.25-9.07,9.31l-88.75,1.19Z"/>
          <path class="cls-1" d="M212.36,205.55l-109.37-.5.08-18.38,108.99.5c2.78-.15,5.15-2.02,5.94-4.7l.03-.1,17.22-56.22-147.83,1.56-.19-18.38,151.23-1.6c5.1,0,9.77,2.34,12.83,6.42,3.05,4.08,3.98,9.22,2.55,14.11l-.03.1-18.17,59.34c-3.06,10.33-12.33,17.49-23.1,17.84h-.17Z"/>
          <rect class="cls-1" x="95.07" y="147.45" width="140.46" height="18.38"/>
          <circle class="cls-1" cx="197.55" cy="256.83" r="15.35"/>
        </g>
      </g>
    </g>
  </g>
</svg>